<svg width="16" height="16" viewBox="0 0 16 16" fill="none" xmlns="http://www.w3.org/2000/svg">
<path d="M12 5.74462H10.8985L9.60616 9.16615C8.42631 8.89259 7.31451 8.38171 6.33847 7.66462C7.47832 6.41775 8.23745 4.87066 8.52616 3.20615H10.1292C10.2924 3.20615 10.449 3.14132 10.5644 3.02591C10.6798 2.9105 10.7446 2.75398 10.7446 2.59077C10.7446 2.42756 10.6798 2.27103 10.5644 2.15563C10.449 2.04022 10.2924 1.97538 10.1292 1.97538H6.05231V0.615385C6.05231 0.452174 5.98748 0.295649 5.87207 0.180242C5.75666 0.064835 5.60014 0 5.43693 0C5.27372 0 5.11719 0.064835 5.00179 0.180242C4.88638 0.295649 4.82154 0.452174 4.82154 0.615385V1.97538H0.741544C0.578334 1.97538 0.421809 2.04022 0.306402 2.15563C0.190995 2.27103 0.12616 2.42756 0.12616 2.59077C0.12616 2.75398 0.190995 2.9105 0.306402 3.02591C0.421809 3.14132 0.578334 3.20615 0.741544 3.20615H2.3477C2.63504 4.87049 3.39315 6.41767 4.53231 7.66462C3.4827 8.43325 2.28017 8.96736 1.00616 9.23077C0.842949 9.24831 0.693394 9.32998 0.590393 9.45779C0.487392 9.5856 0.439384 9.7491 0.456929 9.91231C0.474474 10.0755 0.556135 10.2251 0.683949 10.3281C0.811762 10.4311 0.975257 10.4791 1.13847 10.4615C1.18409 10.4627 1.22965 10.4575 1.27385 10.4462C2.79156 10.1356 4.21658 9.47735 5.43693 8.52308C6.53791 9.38652 7.81028 10.0054 9.16924 10.3385L7.02462 16H8.61539L9.44616 13.6123H13.4277L14.2677 16H15.8739L12 5.74462ZM7.29231 3.20615C7.03662 4.57342 6.39617 5.83937 5.44616 6.85539C4.49544 5.83987 3.85488 4.5737 3.60001 3.20615H7.29231ZM9.96308 12.1754L11.4492 7.92L12.9231 12.1754H9.96308Z" fill="black"/>
</svg>
